<svg id="Layer_1" data-name="Layer 1" xmlns="http://www.w3.org/2000/svg" viewBox="0 0 420 420"><defs><style>.cls-1{fill:#80c0ff;}</style></defs><title>Artboard 1</title><path class="cls-1" d="M523.67,459.66l-20.82-62L496.92,380,434.63,194.6v0l-23.79-70.84v0l-6.64-19.77L402,97.36a8.51,8.51,0,0,0-9.57-5.67l-32.1,5.76L346.21,100l-60.78,10.9h0l-17.86,3.2L252,116.87l-1,1.42L249,117.4l-89.2,16-15.35,2.75-1.74.31a8.53,8.53,0,0,0-7,8.65l.63,20.52.36,11.77,1.48,47.93.69,22.27h0l6.82,221.25.58,18.89,1.21,39.37a8.52,8.52,0,0,0,10,8.12L192.33,529l16.2-2.91,60.77-10.9a8.51,8.51,0,0,0,7-7.4L300.59,298.2l94.53,185.91,1.1,2.16a8.51,8.51,0,0,0,9.1,4.52l58.36-10.46L493.52,475l14.13-2.53,9.44-1.69a8.52,8.52,0,0,0,6.57-11.1Z"/><path class="cls-1" d="M-100,0V600H700V0ZM536.53,450.12a17.62,17.62,0,0,1-12.92,23.34l-8.89,1.86,6.9,25.71-82.46-9.89-26.64,5.58-29.9,93.64L300,522.1l-82.61,68.26-15.8-49.49-35.53,7.44a17.62,17.62,0,0,1-21.19-16.19l-2.32-38.78L78.39,501l27.77-103.5L9.75,350.73l79.32-72.06L33.26,187.19l90.07-15.11L122,150.59a17.52,17.52,0,0,1,14-18.28l3.82-.8,1.62-69.2L240,104.54l60-88.77,48.71,72,35.56-7.44a17.57,17.57,0,0,1,17.42,6.33l56.84-24.36L461,169.45l105.69,17.74-55.81,91.49,79.32,72.06-76.63,37.19Z"/><polygon class="cls-1" points="155.11 128.32 156.21 81.64 229.02 112.85 155.11 128.32"/><polygon class="cls-1" points="277.91 102.61 260.15 106.33 253.85 107.65 300 39.41 334.7 90.72 277.91 102.61"/><polygon class="cls-1" points="439.95 187.97 439.92 187.86 439.86 187.72 414.03 117.6 413.76 116.86 413.75 116.84 406.65 97.56 443.8 81.64 446.08 178.81 541.94 194.9 491.32 277.88 563.27 343.24 507.18 370.46 439.95 187.97"/><path class="cls-1" d="M374.93,560.59,300,498.67l-8.53,7.05,15.33-176.56,86.59,158.75a17.55,17.55,0,0,0,3.37,4.33Z"/><polygon class="cls-1" points="141.41 474.48 98.99 479.56 124.18 385.68 36.73 343.24 108.68 277.88 58.06 194.9 124.03 183.83 126.84 230.73 128.15 252.7 128.15 254.23 128.26 254.5 141.41 474.48"/><path d="M392.4,91.69l-107,19.18h0l-17.86,3.2L142.75,136.46a8.53,8.53,0,0,0-7,8.65l2.47,80.22.69,22.27h0l8.62,279.51a8.52,8.52,0,0,0,10,8.12l111.78-20a8.51,8.51,0,0,0,7-7.4L300.59,298.2l95.63,188.08a8.52,8.52,0,0,0,9.09,4.52l111.78-20a8.52,8.52,0,0,0,6.57-11.1l-89-265.07v0l-23.79-70.84v0L402,97.36A8.51,8.51,0,0,0,392.4,91.69Zm22.3,97c-34.84-.59-67-5.62-71.15-11.53l-5.47-30.52,35.79-6.42L397,136.13l7.7,22.93ZM212.79,169.16l5.47,30.52c-1.82,7.07-29.8,22.75-62.7,35.53l-.3-9.6-1.41-45.89,42.28-7.58Zm-30.64-11.81L180.3,147l35.32-6.33L217.47,151Zm50.23-19.65,12-2.14,1.85,10.32-12,2.14Zm64.43-11.55,12-2.14,1.85,10.32-12,2.14Zm30.57,5.16L325.54,121l35.31-6.33L362.71,125Zm64.15-11.5L379.47,122l-1.85-10.32,10.55-1.89ZM153,151.93,163.54,150l1.85,10.32-12.07,2.16Zm351.39,303.8-95.84,17.19L303,265.31a8.52,8.52,0,0,0-16.05,2.88L260.07,499.54l-95.84,17.18-8.12-263.49c23.21-8.56,53.79-21.71,69.28-36.19,7-6.52,10.9-13.32,9.68-20.08l-5.52-30.81,24.92-4.47,13.85,77.25a8.52,8.52,0,0,0,3.52,5.49l14.9,10.37,9.73-14-12-8.36-13.23-73.78,5.71-1,16.33-2.93h0l28-5,5.52,30.81c3.91,21.77,57.72,25.38,93.6,25.33Z"/></svg>